<svg width="133" height="69" viewBox="0 0 133 69" fill="none" xmlns="http://www.w3.org/2000/svg">
<g clip-path="url(#clip0_166_1261)">
<path d="M35.1205 27.54L30.7727 27.9965C30.6945 28.0055 30.6532 27.9061 30.7175 27.8564L34.9735 24.5976C35.2492 24.3762 35.4238 24.0282 35.3503 23.6575C35.2768 23.0881 34.7988 22.7174 34.1967 22.7943L29.5731 23.4586C29.4904 23.4722 29.449 23.3683 29.5134 23.3186L34.0956 19.8745C35.001 19.183 35.0746 17.8226 34.2473 17.0316C33.4935 16.2903 32.2894 16.3129 31.5356 17.0542L24.1406 24.453C23.8649 24.7513 23.7408 25.1445 23.8143 25.5649C23.9384 26.2338 24.6186 26.6767 25.2988 26.5547L29.279 25.7547C29.3663 25.7366 29.4122 25.8496 29.3387 25.8994L24.922 28.679C24.3704 29.027 24.1176 29.6417 24.2923 30.2609C24.467 31.0744 25.2988 31.5445 26.1031 31.3501L32.7076 29.7502C32.7812 29.7321 32.8363 29.8179 32.7903 29.8767L31.7608 31.1286C31.4851 31.4767 31.9355 31.9422 32.3124 31.6711L35.7042 28.9275C36.3063 28.4349 35.9064 27.4677 35.1251 27.5445L35.1205 27.54Z" fill="#87E64B"/>
<mask id="mask0_166_1261" style="mask-type:luminance" maskUnits="userSpaceOnUse" x="39" y="15" width="71" height="17">
<path d="M109.206 15.2654H39.6558V31.1415H109.206V15.2654Z" fill="white"/>
</mask>
<g mask="url(#mask0_166_1261)">
<path d="M45.9221 18.5381C42.2854 18.5381 39.6455 21.1944 39.6455 24.8542C39.6455 28.5438 42.2784 31.1209 46.049 31.1209C47.9534 31.1209 49.4612 30.5359 50.6602 29.3315C51.0185 28.9517 51.0569 28.5855 51.0569 28.4455C51.0569 27.8489 50.6053 27.4155 49.9832 27.4155C49.6694 27.4155 49.4072 27.5319 49.1062 27.8052C48.4272 28.4267 47.5331 29.0617 46.049 29.0617C43.985 29.0617 42.3067 27.5394 42.201 25.5848H50.415C51.3081 25.5848 51.7421 25.1743 51.7421 24.3309C51.7421 24.0823 51.7421 23.9032 51.6912 23.5496C51.2487 20.4119 49.0921 18.5381 45.9221 18.5381ZM45.9221 20.4974C47.8943 20.4974 49.1596 21.7321 49.2377 23.725H42.2035C42.3882 21.8806 43.9754 20.4974 45.9221 20.4974ZM59.5856 18.5381C57.9336 18.5381 56.2978 19.4714 55.6585 20.7677V19.9665C55.6585 18.7257 54.6797 18.6627 54.4836 18.6627C53.9036 18.6627 53.2835 19.0052 53.2835 19.9665V29.6418C53.2835 30.9305 54.3256 30.9956 54.5344 30.9956C54.7433 30.9956 55.7857 30.9305 55.7857 29.6418V24.4551C55.7857 22.1986 57.0875 20.6223 58.9512 20.6223C60.7562 20.6223 61.6343 21.7861 61.6343 24.1805V29.6418C61.6343 30.9305 62.6763 30.9956 62.8856 30.9956C63.0943 30.9956 64.1363 30.9305 64.1363 29.6418V23.4087C64.1363 21.0542 62.9405 18.539 59.5856 18.539V18.5381ZM75.4578 18.6629C74.8794 18.6629 74.4603 18.9942 74.2107 19.6461L70.7875 28.1033L67.3899 19.6461C67.1239 18.9846 66.7078 18.6629 66.1173 18.6629C65.4273 18.6629 64.866 19.1918 64.866 19.8421C64.866 20.0028 64.8843 20.2117 65.0228 20.5375L68.9572 29.6635C69.4258 30.7646 70.197 30.9956 70.7619 30.9956C71.3262 30.9956 72.0974 30.7645 72.5672 29.6642L76.5273 20.4873C76.6627 20.1654 76.6834 19.929 76.6834 19.8172C76.6834 19.1594 76.1557 18.6629 75.4578 18.6629ZM82.7313 18.5381C81.131 18.5381 79.6406 18.9761 78.5345 19.7703C78.1599 20.0244 77.9775 20.3414 77.9775 20.7401C77.9775 21.289 78.4039 21.7193 78.9493 21.7193C79.1854 21.7193 79.4496 21.627 79.6918 21.4602C80.6423 20.8377 81.5355 20.5474 82.5025 20.5474C84.3523 20.5474 85.4145 21.4718 85.4145 23.0837V23.3506C81.2616 23.355 77.0379 23.8478 77.0379 27.3972C77.0379 29.9518 79.2599 31.0954 81.4617 31.0954C83.2157 31.0954 84.6165 30.4126 85.5151 29.12V29.7416C85.5151 30.6672 86.1478 30.9955 86.6908 30.9955C86.8049 30.9955 87.8146 30.9603 87.8146 29.7416V23.2329C87.8146 20.2926 85.9135 18.5374 82.7307 18.5374L82.7313 18.5381ZM84.888 25.1605H85.4145V25.7269C85.4145 27.798 84.0723 29.1361 81.9949 29.1361C81.4312 29.1361 79.5911 29.0072 79.5911 27.3473C79.5911 25.3872 82.6141 25.1605 84.888 25.1605ZM94.3316 20.8966C95.4267 20.8966 95.4816 20.0596 95.4816 19.8919C95.4816 19.3943 95.1796 18.8623 94.3316 18.8623H92.0803V16.6253C92.0803 15.6261 91.4208 15.2715 90.8547 15.2715C90.646 15.2715 89.604 15.3366 89.604 16.6253V27.2482C89.604 29.6997 90.8351 30.9955 93.1645 30.9955C93.7672 30.9955 94.3541 30.8908 94.7385 30.715C95.179 30.4991 95.431 30.1442 95.431 29.7416C95.431 29.1736 95.0118 28.7616 94.4335 28.7616C94.3218 28.7616 94.1632 28.7888 93.9875 28.8383C93.7733 28.891 93.6281 28.9114 93.4695 28.9114C92.5214 28.9114 92.0803 28.3037 92.0803 26.9986V20.8955H94.3316V20.8966ZM102.605 18.5381C98.82 18.5381 96.0746 21.1735 96.0746 24.8039C96.0746 26.5714 96.7402 28.1825 97.9476 29.3399C99.1458 30.4882 100.799 31.1204 102.605 31.1204C106.342 31.1204 109.16 28.4049 109.16 24.804C109.16 21.1735 106.403 18.5381 102.605 18.5381ZM102.605 29.0361C100.01 29.0361 98.6522 26.907 98.6522 24.8035C98.6522 21.9134 100.702 20.5971 102.605 20.5971C104.509 20.5971 106.557 21.9134 106.557 24.8035C106.557 27.7118 104.509 29.0361 102.605 29.0361Z" fill="black"/>
</g>
<mask id="mask1_166_1261" style="mask-type:luminance" maskUnits="userSpaceOnUse" x="45" y="41" width="12" height="12">
<path d="M56.7385 41.5222H45.7568V52.5134H56.7385V41.5222Z" fill="white"/>
</mask>
<g mask="url(#mask1_166_1261)">
<path fill-rule="evenodd" clip-rule="evenodd" d="M50.6908 42.9918C50.8958 42.4985 51.5949 42.4985 51.7999 42.9918L52.7526 45.2844L55.2253 45.4831C55.7579 45.5257 55.9739 46.1907 55.568 46.5388L53.6842 48.1539L54.2594 50.5687C54.3834 51.0891 53.8183 51.4999 53.3625 51.2214L51.2453 49.9272L49.1282 51.2214C48.6725 51.4999 48.1073 51.0886 48.2314 50.5687L48.8065 48.1539L46.9227 46.5388C46.5169 46.1907 46.7328 45.5257 47.2655 45.4831L49.7382 45.2844L50.6908 42.9918Z" fill="#FFB422"/>
</g>
<mask id="mask2_166_1261" style="mask-type:luminance" maskUnits="userSpaceOnUse" x="57" y="41" width="12" height="12">
<path d="M68.9401 41.5222H57.9585V52.5134H68.9401V41.5222Z" fill="white"/>
</mask>
<g mask="url(#mask2_166_1261)">
<path fill-rule="evenodd" clip-rule="evenodd" d="M62.8922 42.9918C63.0978 42.4985 63.7963 42.4985 64.0013 42.9918L64.9543 45.2844L67.427 45.4831C67.9596 45.5257 68.1756 46.1907 67.7699 46.5388L65.8859 48.1539L66.4612 50.5687C66.5851 51.0891 66.0201 51.4999 65.5644 51.2214L63.4468 49.9272L61.3297 51.2214C60.8742 51.4999 60.309 51.0886 60.433 50.5687L61.0082 48.1539L59.1244 46.5388C58.7185 46.1907 58.9345 45.5257 59.4671 45.4831L61.9398 45.2844L62.8922 42.9918Z" fill="#FFB422"/>
</g>
<mask id="mask3_166_1261" style="mask-type:luminance" maskUnits="userSpaceOnUse" x="70" y="41" width="12" height="12">
<path d="M81.1423 41.5222H70.1606V52.5134H81.1423V41.5222Z" fill="white"/>
</mask>
<g mask="url(#mask3_166_1261)">
<path fill-rule="evenodd" clip-rule="evenodd" d="M75.0943 42.9918C75.2999 42.4985 75.9985 42.4985 76.2035 42.9918L77.1565 45.2844L79.6292 45.4831C80.1618 45.5257 80.3777 46.1907 79.972 46.5388L78.0881 48.1539L78.6634 50.5687C78.7872 51.0891 78.2223 51.4999 77.7665 51.2214L75.6489 49.9272L73.5319 51.2214C73.0762 51.4999 72.5112 51.0886 72.6351 50.5687L73.2104 48.1539L71.3264 46.5388C70.9207 46.1907 71.1367 45.5257 71.6693 45.4831L74.142 45.2844L75.0943 42.9918Z" fill="#FFB422"/>
</g>
<mask id="mask4_166_1261" style="mask-type:luminance" maskUnits="userSpaceOnUse" x="82" y="41" width="12" height="12">
<path d="M93.344 41.5222H82.3623V52.5134H93.344V41.5222Z" fill="white"/>
</mask>
<g mask="url(#mask4_166_1261)">
<path fill-rule="evenodd" clip-rule="evenodd" d="M87.296 42.9918C87.5016 42.4985 88.2002 42.4985 88.4052 42.9918L89.3581 45.2844L91.8308 45.4831C92.3634 45.5257 92.5794 46.1907 92.1737 46.5388L90.2897 48.1539L90.865 50.5687C90.9889 51.0891 90.4239 51.4999 89.9682 51.2214L87.8506 49.9272L85.7336 51.2214C85.2778 51.4999 84.7129 51.0886 84.8367 50.5687L85.412 48.1539L83.5281 46.5388C83.1224 46.1907 83.3383 45.5257 83.871 45.4831L86.3437 45.2844L87.296 42.9918Z" fill="#FFB422"/>
</g>
<mask id="mask5_166_1261" style="mask-type:luminance" maskUnits="userSpaceOnUse" x="94" y="41" width="12" height="12">
<path d="M105.546 41.5222H94.5645V52.5134H105.546V41.5222Z" fill="white"/>
</mask>
<g mask="url(#mask5_166_1261)">
<path fill-rule="evenodd" clip-rule="evenodd" d="M99.4982 42.9918C99.7038 42.4985 100.402 42.4985 100.607 42.9918L101.56 45.2844L104.033 45.4831C104.566 45.5257 104.782 46.1907 104.376 46.5388L102.492 48.1539L103.067 50.5687C103.191 51.0891 102.626 51.4999 102.17 51.2214L100.053 49.9272L97.9357 51.2214C97.48 51.4999 96.915 51.0886 97.0389 50.5687L97.6142 48.1539L95.7302 46.5388C95.3245 46.1907 95.5405 45.5257 96.0731 45.4831L98.5458 45.2844L99.4982 42.9918Z" fill="#FFB422"/>
</g>
<mask id="mask6_166_1261" style="mask-type:luminance" maskUnits="userSpaceOnUse" x="94" y="41" width="12" height="12">
<path d="M105.546 41.5222H94.5645V52.5134H105.546V41.5222Z" fill="white"/>
</mask>
<g mask="url(#mask6_166_1261)">
<path fill-rule="evenodd" clip-rule="evenodd" d="M99.4982 42.9918C99.7038 42.4985 100.402 42.4985 100.607 42.9918L101.56 45.2844L104.033 45.4831C104.566 45.5257 104.782 46.1907 104.376 46.5388L102.492 48.1539L103.067 50.5687C103.191 51.0891 102.626 51.4999 102.17 51.2214L100.053 49.9272L97.9357 51.2214C97.48 51.4999 96.915 51.0886 97.0389 50.5687L97.6142 48.1539L95.7302 46.5388C95.3245 46.1907 95.5405 45.5257 96.0731 45.4831L98.5458 45.2844L99.4982 42.9918Z" fill="#FFB422"/>
</g>
<path d="M31.188 51.292V49.6433H27.7617V48.3353L31.0562 43.5872H32.2422V48.753H33.3514V49.6433H32.2422V51.292H31.188ZM28.5963 48.753H31.2209V44.7412L28.5963 48.753ZM34.4459 51.292V49.973H35.6648V51.292H34.4459ZM36.9971 44.5983V43.6861H42.0157V44.6093L39.2264 51.292H37.9855L40.9066 44.5983H36.9971Z" fill="white"/>
<mask id="mask7_166_1261" style="mask-type:luminance" maskUnits="userSpaceOnUse" x="0" y="0" width="35" height="69">
<path d="M34.1651 0H0V69H34.1651V0Z" fill="white"/>
</mask>
<g mask="url(#mask7_166_1261)">
<path d="M34.1653 64.653C20.6098 65.5939 8.35078 55.5161 5.18596 40.3197C3.62135 32.8162 4.58896 25.0134 7.94092 18.1039C11.0723 11.8846 16.3049 6.93931 22.7356 4.12134C23.8264 3.6293 24.9434 3.19584 26.0816 2.82283C26.5296 2.68168 26.787 2.38058 26.339 2.51231C20.4192 4.32835 14.5184 7.63109 10.3908 12.8628C6.29124 18.3196 3.99454 24.8907 3.81325 31.6818C3.15549 45.6926 10.9151 58.753 22.3639 63.6082C26.0888 65.1574 30.1356 65.8028 34.1653 65.4901V64.6811V64.653Z" fill="#F1CB6A"/>
<path d="M19.8755 68.5481L20.4188 68.6611C20.7716 68.727 21.2673 68.8021 21.8583 68.8778C22.4493 68.953 23.1547 68.9908 23.8887 69C24.6538 68.9957 25.4178 68.9456 26.1766 68.8491C26.9303 68.7569 27.6738 68.5964 28.3977 68.3698C29.0336 68.1726 29.647 67.9106 30.228 67.5888C31.2575 66.9489 31.8295 66.2241 31.696 65.4529C30.0389 65.5713 28.3901 65.7851 26.7581 66.0922C26.4054 66.1581 26.0622 66.243 25.7286 66.3181C25.3949 66.3938 25.0804 66.469 24.7753 66.5538C24.1557 66.7321 23.5933 66.883 23.088 67.071C22.5828 67.2591 22.1348 67.4191 21.7249 67.5888C21.3149 67.758 20.9908 67.9179 20.7144 68.0682C20.4228 68.2074 20.1423 68.3674 19.8755 68.5481Z" fill="#F1CB6A"/>
<path d="M13.3936 64.3991L13.8702 64.6244C14.1848 64.7661 14.6233 64.9731 15.1571 65.1801C15.6909 65.3871 16.3201 65.6124 17.0065 65.7913C17.3496 65.8762 17.6928 65.9702 18.0551 66.0453C18.4173 66.121 18.7795 66.1772 19.1418 66.2334C19.502 66.2865 19.8647 66.3213 20.2285 66.3372C20.5812 66.3372 20.9339 66.3372 21.2771 66.3372C21.9013 66.3225 22.5219 66.2377 23.1265 66.0832C23.5947 65.9623 24.0328 65.748 24.4133 65.4524C24.5584 65.3388 24.6776 65.1966 24.763 65.0341C24.8484 64.8723 24.8982 64.694 24.909 64.5114C23.3618 64.186 21.7953 63.957 20.219 63.8251C19.5326 63.7683 18.8844 63.7592 18.3124 63.7402H17.4449H16.6538C15.8549 63.7927 15.0614 63.9063 14.2801 64.0791C13.9753 64.1585 13.6785 64.2654 13.3936 64.3991Z" fill="#F1CB6A"/>
<path d="M7.94092 58.7153L8.34132 59.0446C8.68438 59.3374 9.04402 59.6107 9.4185 59.8633C9.92646 60.2307 10.4547 60.57 11.001 60.8795C11.616 61.2316 12.2528 61.5461 12.9075 61.8202C13.2188 61.9613 13.5369 62.0871 13.8608 62.197C14.1734 62.3069 14.4916 62.4009 14.814 62.4791C15.3871 62.6275 15.9757 62.7093 16.568 62.724C17.0152 62.7368 17.4602 62.6562 17.874 62.4883C18.0349 62.4217 18.1781 62.3185 18.2922 62.1878C18.4062 62.0578 18.4882 61.9027 18.5317 61.736C17.1814 61.0159 15.7833 60.3871 14.3469 59.8538C13.2739 59.4563 12.171 59.1417 11.0486 58.9129C10.6263 58.8287 10.2 58.7659 9.77119 58.7247C9.38989 58.6776 9.06581 58.6588 8.81792 58.6494C8.52435 58.6495 8.2312 58.6715 7.94092 58.7153Z" fill="#F1CB6A"/>
<path d="M3.81299 51.8372L4.11803 52.2324C4.30869 52.4958 4.6042 52.8439 4.95691 53.2485C5.13803 53.4462 5.31915 53.672 5.53841 53.8884L6.21522 54.5565C6.68457 55.0297 7.18106 55.4758 7.70232 55.8926C8.232 56.2897 8.78597 56.6543 9.36104 56.9841C9.85302 57.2615 10.374 57.4855 10.9148 57.6522C11.8681 57.9157 12.6117 57.8404 12.9167 57.257C11.8245 56.2339 10.6585 55.2905 9.42772 54.4342C8.91299 54.0672 8.38868 53.7661 7.91207 53.4932C7.47689 53.2349 7.02823 52.9993 6.56792 52.7875C5.91903 52.4637 5.24284 52.196 4.54701 51.9877C4.30701 51.9174 4.06148 51.867 3.81299 51.8372Z" fill="#F1CB6A"/>
<path d="M1.07715 44.093L1.12481 44.2154C1.16883 44.3251 1.21978 44.4319 1.27734 44.5353C1.4108 44.8082 1.61098 45.2034 1.85883 45.6644C2.10668 46.1255 2.42126 46.6054 2.75491 47.1793C3.08855 47.7533 3.50799 48.2521 3.90836 48.779C4.30873 49.3059 4.7663 49.7764 5.21433 50.1904C5.60892 50.5707 6.04353 50.9081 6.5108 51.1972C7.34009 51.6865 8.02645 51.8089 8.41733 51.3478C7.61866 50.1416 6.73299 48.9938 5.76723 47.9133C5.38829 47.4766 4.98742 47.0589 4.56611 46.6618C4.1848 46.2854 3.81303 45.9561 3.46986 45.6739C2.93232 45.221 2.35848 44.8119 1.75397 44.4506L1.24874 44.2248L1.07715 44.093Z" fill="#F1CB6A"/>
<path d="M0 35.9163L0.10486 36.3679C0.181121 36.6502 0.266915 37.0548 0.419438 37.5347C0.571961 38.0146 0.743549 38.5792 0.953268 39.1343C1.16299 39.6895 1.42037 40.3011 1.70635 40.8751C2.19593 41.9188 2.83831 42.8857 3.61288 43.745C4.28017 44.4037 4.88073 44.6859 5.32877 44.3754C5.18578 43.999 5.04279 43.6415 4.89027 43.2933C4.73775 42.9452 4.61382 42.6159 4.4613 42.2959C4.15625 41.6655 3.88934 41.0821 3.59382 40.5551C3.09844 39.6428 2.53443 38.7684 1.90654 37.9393C1.64915 37.5912 1.39177 37.29 1.16299 36.9983C0.934203 36.7066 0.743549 36.5373 0.571961 36.3679C0.390511 36.2064 0.199523 36.0555 0 35.9163Z" fill="#F1CB6A"/>
<path d="M0.552734 27.7393C0.552734 27.7393 0.552734 27.8992 0.552734 28.1721C0.552734 28.445 0.552734 28.8401 0.628996 29.3106C0.705257 29.7811 0.733858 30.3175 0.829185 30.8915C0.829185 31.1737 0.914976 31.4654 0.972172 31.7571C1.02937 32.0488 1.10563 32.3499 1.18189 32.6981C1.25815 33.0462 1.32488 33.2815 1.41068 33.5638C1.49647 33.8461 1.60133 34.1283 1.69666 34.3918C1.869 34.8672 2.08935 35.3243 2.35441 35.7561C2.82151 36.5277 3.30768 36.9418 3.77478 36.7818C3.4802 34.4644 2.83764 32.2033 1.86824 30.0728C1.59991 29.4735 1.28104 28.8975 0.914976 28.3509C0.781519 28.1627 0.686192 28.0215 0.60993 27.9275L0.552734 27.7393Z" fill="#F1CB6A"/>
<path d="M2.69776 19.9575C2.69776 19.9575 2.5929 20.5315 2.47851 21.3972C2.47851 21.83 2.40225 22.3381 2.36411 22.865C2.32598 23.392 2.36411 23.9848 2.36411 24.5494C2.3866 25.5894 2.55338 26.6215 2.85981 27.6169C2.95728 27.9555 3.11549 28.2743 3.32691 28.5578C3.39522 28.6584 3.48737 28.7409 3.59535 28.7983C3.70334 28.8557 3.82389 28.8862 3.94654 28.8872C3.9942 28.1721 4.0228 27.504 4.01327 26.8735C4.02421 26.2895 4.00512 25.7054 3.95607 25.1234C3.92315 24.6156 3.86269 24.1099 3.77495 23.6084C3.71776 23.1473 3.63196 22.7239 3.54617 22.3381C3.40694 21.7378 3.22863 21.1469 3.01234 20.5691C2.92301 20.3578 2.81785 20.1534 2.69776 19.9575Z" fill="#F1CB6A"/>
<path d="M6.31045 12.9851C6.31045 12.9851 6.25328 13.1074 6.1675 13.3239C6.08168 13.5403 5.97683 13.8414 5.8529 14.2648C5.72898 14.6882 5.59552 15.074 5.47159 15.5539C5.34767 16.0338 5.24281 16.5419 5.14748 17.0594C5.05215 17.577 4.99496 18.0945 4.95683 18.5838C4.91804 19.0315 4.91804 19.4816 4.95683 19.9293C5.02356 20.7292 5.27141 21.2843 5.68131 21.369C6.28116 19.4264 6.58316 17.406 6.57736 15.3751C6.56541 14.7953 6.51446 14.2169 6.42484 13.6438C6.39928 13.4223 6.36109 13.2024 6.31045 12.9851Z" fill="#F1CB6A"/>
<path d="M11.1534 7.16064L10.9722 7.42413L10.5338 8.1675C10.0947 8.91135 9.70927 9.68488 9.38031 10.4822C9.20869 10.9244 9.05617 11.3761 8.93226 11.7995C8.8186 12.1973 8.73575 12.6032 8.68438 13.0134C8.5986 13.7379 8.68438 14.293 9.05617 14.4812C9.97735 12.8822 10.6217 11.1427 10.9627 9.33427C11.0625 8.81268 11.1199 8.28406 11.1343 7.75343C11.1569 7.55669 11.1632 7.35842 11.1534 7.16064Z" fill="#F1CB6A"/>
<path d="M16.9875 2.75684C16.9875 2.75684 16.6825 3.04854 16.2631 3.50019C16.0438 3.72602 15.8055 3.9989 15.5576 4.30941C15.3098 4.61992 15.0524 4.93985 14.8141 5.25036C14.5757 5.56087 14.3565 5.96548 14.1659 6.30422C13.9905 6.62993 13.8437 6.96992 13.7273 7.32048C13.5081 7.95088 13.489 8.45898 13.7273 8.72246C14.8758 7.55776 15.7997 6.19621 16.4537 4.70461C16.727 4.08456 16.9069 3.42834 16.9875 2.75684Z" fill="#F1CB6A"/>
<path d="M23.5078 0C23.5078 0 23.1932 0.178781 22.7261 0.470476C22.17 0.848224 21.6383 1.25991 21.1342 1.70312C20.8672 1.95718 20.6003 2.22065 20.3715 2.47471C20.1526 2.71819 19.9549 2.97944 19.7805 3.25569C19.4754 3.76381 19.3611 4.19665 19.5517 4.49775C19.9254 4.27942 20.2823 4.0341 20.6194 3.76381C20.9251 3.53217 21.2149 3.28069 21.4869 3.01104C21.7347 2.74758 21.9635 2.50293 22.1637 2.26769C22.3573 2.04774 22.5357 1.8151 22.6975 1.57139C22.9371 1.21201 23.1475 0.834448 23.3266 0.442247C23.3989 0.299874 23.4595 0.15198 23.5078 0Z" fill="#F1CB6A"/>
<path d="M23.6982 57.2476L24.0032 57.511C24.2035 57.671 24.4989 57.8968 24.8421 58.1885L26.0623 59.1294C26.5199 59.4588 27.0156 59.8446 27.5304 60.1927C28.0451 60.5409 28.5694 60.9079 29.0651 61.2842C29.5658 61.614 30.0464 61.9718 30.5045 62.3571C31.3148 63.0441 31.8773 63.7963 31.7438 64.559C30.1402 64.4424 28.5986 63.8989 27.2825 62.9873C27.0077 62.801 26.7436 62.6001 26.4913 62.3852C26.253 62.1593 26.0337 61.9431 25.8335 61.7263C25.1541 60.9727 24.6152 60.1062 24.2416 59.1671C24.0808 58.8481 23.9438 58.5178 23.8317 58.1791C23.7652 57.872 23.7206 57.5607 23.6982 57.2476Z" fill="#F1CB6A"/>
<path d="M19.0656 54.7822L20.0188 55.9396C20.2953 56.269 20.6098 56.7018 20.9721 57.1158L21.525 57.7933C21.7251 58.0097 21.9254 58.2355 22.1256 58.4802C22.3257 58.7248 22.5355 58.9507 22.7356 59.1765C22.9358 59.4023 23.1456 59.6564 23.3362 59.8916C23.7192 60.3218 24.0757 60.7743 24.4039 61.2464C24.6923 61.6323 24.9234 62.0573 25.0902 62.5073C25.2282 62.8621 25.2282 63.2541 25.0902 63.6082C23.6212 63.063 22.3114 62.1672 21.2772 61.0019C20.8583 60.5266 20.4909 60.0094 20.1809 59.4588C20.0379 59.1953 19.914 58.9507 19.8091 58.706C19.7042 58.4613 19.6089 58.2167 19.5231 57.9814C19.2714 57.2355 19.1176 56.4608 19.0656 55.6761C19.0432 55.3786 19.0432 55.0798 19.0656 54.7822Z" fill="#F1CB6A"/>
<path d="M15.0804 51.1501C15.0804 51.1501 15.1472 51.2725 15.252 51.4983C15.3569 51.7241 15.4999 52.0628 15.7 52.4392C15.9002 52.8156 16.1195 53.2861 16.3769 53.7754C16.6343 54.2647 16.9107 54.7916 17.1871 55.3373C17.3302 55.6196 17.4827 55.8737 17.6257 56.1466L18.0355 56.9558C18.3048 57.4538 18.5467 57.9658 18.76 58.4895C18.9474 58.916 19.0757 59.3654 19.1413 59.8257C19.2014 60.1814 19.1268 60.5465 18.9316 60.8514C17.6874 59.9534 16.6616 58.793 15.9288 57.4545C15.3865 56.4467 15.0344 55.3499 14.8898 54.2177C14.8369 53.7932 14.8146 53.3655 14.823 52.9379C14.8288 52.6227 14.8574 52.3082 14.9088 51.997C14.9432 51.7107 15.0006 51.4275 15.0804 51.1501Z" fill="#F1CB6A"/>
<path d="M11.8398 46.53C11.8398 46.53 11.8398 46.6712 11.9352 46.9064C12.0305 47.1416 12.0781 47.4804 12.1735 47.8474C12.2306 48.0544 12.2784 48.2802 12.345 48.5155C12.4118 48.7507 12.4785 48.9953 12.5453 49.2588C12.6787 49.7857 12.8598 50.3315 13.0028 50.9055C13.1458 51.4795 13.3364 52.0534 13.4794 52.618C13.6225 53.1825 13.7464 53.7283 13.8417 54.2176C14.0133 55.1586 13.9942 56.0431 13.5271 56.4382C12.1483 54.8486 11.3024 52.8763 11.1058 50.7925C11.0682 50.2946 11.0682 49.7945 11.1058 49.2964C11.1601 48.5875 11.3075 47.8884 11.5443 47.2169C11.6263 46.9814 11.7251 46.7518 11.8398 46.53Z" fill="#F1CB6A"/>
<path d="M9.58033 41.1665V41.2606C9.58033 41.3265 9.58033 41.4206 9.58033 41.5335C9.58033 41.6464 9.58033 42.0981 9.58033 42.4744C9.58033 42.8508 9.63755 43.3495 9.64707 43.8765C9.65659 44.4034 9.73285 44.9398 9.75195 45.5137C9.77098 46.0877 9.82821 46.6523 9.85682 47.2074C9.88501 47.7277 9.88501 48.2491 9.85682 48.7695C9.85682 49.7104 9.63755 50.4725 9.13234 50.7172C8.48778 49.4342 8.09628 48.042 7.97884 46.6146C7.93479 46.0509 7.93479 45.4847 7.97884 44.921C8.03875 44.4549 8.12788 43.9929 8.24575 43.5377C8.42829 42.904 8.69429 42.2965 9.03698 41.7311C9.12691 41.5761 9.22892 41.4282 9.34203 41.2889C9.41731 41.2406 9.49711 41.1997 9.58033 41.1665Z" fill="#F1CB6A"/>
<path d="M8.43653 35.2952C8.43653 35.2952 8.36027 35.7845 8.23636 36.5466L8.03612 37.8546C7.97896 38.3345 7.89312 38.8614 7.82644 39.3883C7.70192 40.4006 7.52371 41.4056 7.29261 42.3994C7.07334 43.265 6.7492 43.9049 6.24398 43.999C6.1582 43.6132 6.08194 43.2368 6.02474 42.8792C5.97492 42.5298 5.9431 42.1781 5.92942 41.8254C5.89101 41.1972 5.91656 40.5667 6.00568 39.9435C6.13197 38.9881 6.42548 38.0616 6.87317 37.2053C7.0393 36.9028 7.22391 36.6106 7.42603 36.3302C7.58545 36.1285 7.75731 35.9369 7.94083 35.7562C8.0892 35.5858 8.25539 35.4313 8.43653 35.2952Z" fill="#F1CB6A"/>
<path d="M8.47465 29.1694C8.47465 29.1694 8.42701 29.2729 8.36026 29.4705L8.06473 30.2703C7.92179 30.6091 7.79782 30.9949 7.63578 31.4277C7.55952 31.6442 7.47374 31.8606 7.38796 32.0864C7.30212 32.3122 7.23543 32.5474 7.14959 32.7827C6.98755 33.2343 6.80642 33.7236 6.63486 34.1753C6.46324 34.627 6.26307 35.0504 6.08196 35.4079C5.71972 36.1795 5.29074 36.697 4.76645 36.6312C4.75275 35.9414 4.8006 35.2519 4.90944 34.5705C4.96663 34.26 5.02383 33.9589 5.09056 33.6295C5.15729 33.3002 5.26215 33.0838 5.34794 32.8391C5.65405 32.0193 6.10243 31.2583 6.67299 30.5903C7.03429 30.1702 7.4511 29.7999 7.91221 29.4893C8.03771 29.4037 8.17193 29.3312 8.31261 29.2729L8.47465 29.1694Z" fill="#F1CB6A"/>
<path d="M9.72335 23.251L9.13235 24.1919C8.96074 24.4742 8.76056 24.7941 8.53178 25.1329C8.303 25.4716 8.08373 25.8669 7.83591 26.2527C7.38743 26.9874 6.89405 27.6944 6.35833 28.3698C6.15779 28.6209 5.91613 28.8372 5.64336 29.0096C5.54902 29.0791 5.43896 29.1248 5.32269 29.1428C5.20642 29.1609 5.08745 29.1507 4.97607 29.1131C5.0982 28.4911 5.2736 27.8805 5.50037 27.2877C5.69922 26.797 5.94165 26.3247 6.22484 25.8763C6.46375 25.508 6.73152 25.1588 7.02559 24.8318C7.27859 24.5717 7.55277 24.3325 7.84543 24.1167C8.24925 23.8149 8.69998 23.5798 9.18 23.4204C9.35467 23.3454 9.53678 23.2887 9.72335 23.251Z" fill="#F1CB6A"/>
<path d="M12.1543 17.7182L9.86647 19.9577C9.58046 20.2494 9.28493 20.5411 8.97988 20.8046C8.67484 21.068 8.40792 21.3127 8.13149 21.5102C7.57862 21.8866 7.09244 22.0842 6.73975 21.8207C6.96786 21.2932 7.24216 20.7863 7.55953 20.3059C7.84822 19.9182 8.16693 19.5533 8.51279 19.2143C9.03064 18.7041 9.64641 18.3011 10.324 18.0287C10.747 17.8474 11.1984 17.7392 11.6586 17.7088C11.8238 17.6978 11.9896 17.701 12.1543 17.7182Z" fill="#F1CB6A"/>
<path d="M15.6334 12.9005L15.4236 13.0228L14.8708 13.3615C14.4037 13.625 13.8031 14.0202 13.1549 14.3872C12.8498 14.5754 12.5257 14.7636 12.2016 14.9235C11.893 15.0839 11.5746 15.2252 11.2483 15.3469C11.0026 15.4449 10.7411 15.4991 10.4762 15.5069C10.3752 15.5089 10.2749 15.4889 10.1826 15.4482C10.0903 15.4075 10.0083 15.3472 9.94238 15.2717C10.3833 14.6059 10.959 14.0374 11.6333 13.6018C12.3075 13.1662 13.0657 12.873 13.8603 12.7405C14.2775 12.6802 14.7014 12.6802 15.1186 12.7405C15.2946 12.7789 15.4668 12.8324 15.6334 12.9005Z" fill="#F1CB6A"/>
<path d="M20.0184 9.07067L19.2558 9.30588L18.455 9.54115C18.1691 9.63525 17.845 9.71054 17.5018 9.81404C17.1586 9.91754 16.8631 9.99283 16.5485 10.0587C16.2568 10.1285 15.9606 10.1788 15.662 10.2092C15.1186 10.2562 14.7087 10.2092 14.5181 9.81404C15.0501 9.3355 15.678 8.9726 16.3611 8.74893C17.0443 8.52526 17.7674 8.4457 18.4837 8.51549C19.0321 8.58004 19.5576 8.77018 20.0184 9.07067Z" fill="#F1CB6A"/>
<path d="M25.0804 6.45497C25.0804 6.45497 24.7944 6.45497 24.3559 6.45497C24.1366 6.45497 23.8888 6.45497 23.6123 6.45497C23.3359 6.45497 23.0308 6.45497 22.7353 6.45497C22.4398 6.45497 22.1348 6.45497 21.8393 6.45497C21.5674 6.44789 21.2964 6.41955 21.029 6.37028C20.5428 6.27618 20.171 6.08802 20.0757 5.73045C20.4453 5.57274 20.828 5.44681 21.2197 5.35407C21.5551 5.28472 21.8969 5.25004 22.2396 5.25057C22.5316 5.24666 22.823 5.27826 23.1071 5.34466C23.3558 5.42726 23.5979 5.5279 23.8316 5.64577C24.1756 5.78698 24.4968 5.97719 24.7849 6.21036C24.8897 6.28412 24.9885 6.36588 25.0804 6.45497Z" fill="#F1CB6A"/>
<path d="M31.7154 2.09825L30.6477 1.96652C30.2651 1.91674 29.88 1.88847 29.4943 1.88184H28.8269L28.112 1.92888L27.378 1.99475L26.6344 2.12648C26.1526 2.20506 25.6799 2.33115 25.2235 2.50287C24.7999 2.63766 24.3936 2.82082 24.0129 3.04861C23.8475 3.14537 23.6883 3.25222 23.5363 3.36854C23.3991 3.48747 23.2746 3.61988 23.1646 3.76374C23.5194 3.80146 23.8773 3.80146 24.2322 3.76374C24.623 3.71669 25.052 3.63201 25.5 3.54732C25.7193 3.54732 25.9481 3.45322 26.1864 3.38736L26.8823 3.2274L27.5781 3.04861L28.2741 2.82279L28.9508 2.65341L29.5514 2.55932C29.9518 2.46523 30.3236 2.37113 30.6382 2.31467C31.3149 2.19235 31.7154 2.09825 31.7154 2.09825Z" fill="#F1CB6A"/>
</g>
<mask id="mask8_166_1261" style="mask-type:luminance" maskUnits="userSpaceOnUse" x="98" y="0" width="35" height="69">
<path d="M133 0H98.835V69H133V0Z" fill="white"/>
</mask>
<g mask="url(#mask8_166_1261)">
<path d="M98.835 64.653C112.391 65.5939 124.649 55.4785 127.814 40.3197C129.379 32.8162 128.412 25.0134 125.059 18.1039C121.925 11.89 116.698 6.94646 110.274 4.12134C109.177 3.62896 108.053 3.19549 106.909 2.82283C106.471 2.68168 106.213 2.38058 106.661 2.51231C112.581 4.32835 118.482 7.63109 122.61 12.8628C126.712 18.3185 129.013 24.8896 129.197 31.6818C129.845 45.6926 122.085 58.753 110.637 63.6082C106.909 65.1476 102.862 65.7832 98.835 65.4621V64.653Z" fill="#F1CB6A"/>
<path d="M113.134 68.5481L112.581 68.6611C112.238 68.727 111.742 68.8021 111.142 68.8778C110.541 68.953 109.855 68.9908 109.121 69C108.353 68.9957 107.586 68.9456 106.824 68.8491C106.073 68.7563 105.333 68.5957 104.612 68.3698C103.976 68.1726 103.363 67.9106 102.782 67.5888C101.752 66.9489 101.171 66.2241 101.313 65.4529C102.968 65.5707 104.613 65.7844 106.242 66.0922C106.604 66.1581 106.948 66.243 107.281 66.3181C107.615 66.3938 107.929 66.469 108.234 66.5538C108.854 66.7321 109.407 66.883 109.922 67.071C110.437 67.2591 110.875 67.4191 111.285 67.5888C111.695 67.758 112.019 67.9179 112.295 68.0682C112.585 68.2098 112.865 68.3704 113.134 68.5481Z" fill="#F1CB6A"/>
<path d="M119.607 64.3991L119.121 64.6244C118.816 64.7661 118.377 64.9731 117.843 65.1801C117.309 65.3871 116.68 65.6124 115.994 65.7913C115.65 65.8762 115.298 65.9702 114.945 66.0453C114.592 66.121 114.221 66.1772 113.859 66.2334C113.499 66.2865 113.136 66.3213 112.772 66.3372C112.41 66.3372 112.057 66.3372 111.723 66.3372C111.099 66.3232 110.478 66.2383 109.874 66.0832C109.405 65.9647 108.966 65.7498 108.587 65.4524C108.442 65.3388 108.323 65.1966 108.237 65.0341C108.152 64.8723 108.102 64.694 108.091 64.5114C109.639 64.1854 111.205 63.9564 112.781 63.8251C113.458 63.7683 114.116 63.7592 114.688 63.7402H115.555H116.337C117.139 63.7921 117.936 63.9057 118.72 64.0791C119.025 64.1585 119.322 64.2654 119.607 64.3991Z" fill="#F1CB6A"/>
<path d="M125.059 58.7153L124.659 59.0446C124.402 59.2516 124.039 59.5527 123.582 59.8633C123.074 60.2307 122.546 60.57 122 60.8795C121.384 61.2316 120.748 61.5461 120.093 61.8202C119.782 61.9613 119.464 62.0871 119.14 62.197C118.827 62.3063 118.509 62.4009 118.187 62.4791C117.613 62.6275 117.025 62.7093 116.433 62.724C115.985 62.7356 115.541 62.6556 115.126 62.4883C114.968 62.4199 114.827 62.3161 114.715 62.186C114.602 62.0553 114.521 61.9014 114.479 61.736C115.827 61.0142 117.226 60.3854 118.663 59.8538C119.736 59.4563 120.839 59.1417 121.961 58.9129C122.383 58.8287 122.81 58.7659 123.239 58.7247C123.62 58.6776 123.944 58.6588 124.192 58.6494C124.483 58.6503 124.773 58.6724 125.059 58.7153Z" fill="#F1CB6A"/>
<path d="M129.235 51.8372L128.93 52.2324C128.739 52.4958 128.443 52.8439 128.091 53.2485C127.91 53.4462 127.728 53.672 127.509 53.8884L126.833 54.5565C126.345 55.0311 125.829 55.4772 125.288 55.8926C124.757 56.2925 124.2 56.6571 123.62 56.9841C123.127 57.2598 122.607 57.4837 122.066 57.6522C121.113 57.9157 120.369 57.8404 120.064 57.257C121.155 56.2317 122.321 55.2881 123.554 54.4342C124.068 54.0672 124.593 53.7661 125.059 53.4932C125.527 53.2203 126.013 52.9851 126.413 52.7875C127.062 52.4637 127.738 52.196 128.434 51.9877C128.696 51.9137 128.964 51.8632 129.235 51.8372Z" fill="#F1CB6A"/>
<path d="M131.923 44.093C131.905 44.1328 131.889 44.1736 131.875 44.2154C131.875 44.2812 131.799 44.4036 131.723 44.5353C131.647 44.667 131.389 45.2034 131.141 45.6644C130.894 46.1255 130.579 46.6054 130.245 47.1793C129.912 47.7533 129.492 48.2521 129.082 48.779C128.677 49.2727 128.244 49.7439 127.786 50.1904C127.384 50.5668 126.947 50.904 126.48 51.1972C125.641 51.6865 124.955 51.8089 124.574 51.3478C125.372 50.1416 126.258 48.9938 127.223 47.9133C127.6 47.4743 128.001 47.0565 128.425 46.6618C128.772 46.3141 129.138 45.9843 129.521 45.6739C130.058 45.221 130.633 44.8119 131.237 44.4506L131.733 44.1777L131.923 44.093Z" fill="#F1CB6A"/>
<path d="M133 35.9163L132.895 36.3679C132.819 36.6502 132.733 37.0548 132.581 37.5347C132.428 38.0146 132.256 38.5604 132.047 39.1343C131.837 39.7083 131.58 40.3011 131.293 40.8751C130.804 41.9188 130.162 42.8857 129.387 43.745C128.72 44.4037 128.119 44.6859 127.671 44.3754C127.814 43.999 127.957 43.6415 128.1 43.2933C128.243 42.9452 128.386 42.6159 128.538 42.2959C128.834 41.6655 129.111 41.0821 129.406 40.5551C129.898 39.6431 130.459 38.7687 131.084 37.9393C131.341 37.5912 131.599 37.29 131.818 36.9983C132.037 36.7066 132.247 36.5373 132.419 36.3679C132.603 36.2061 132.797 36.0552 133 35.9163Z" fill="#F1CB6A"/>
<path d="M132.447 27.7393C132.447 27.7393 132.447 27.8992 132.447 28.1721C132.447 28.445 132.447 28.8401 132.361 29.3106C132.275 29.7811 132.257 30.3175 132.171 30.8915L132.028 31.7571C131.961 32.0582 131.885 32.3499 131.818 32.6981L131.589 33.5638C131.494 33.8461 131.399 34.1283 131.304 34.3918C131.131 34.8672 130.911 35.3243 130.646 35.7561C130.179 36.5277 129.692 36.9418 129.216 36.7818C129.515 34.4653 130.157 32.2048 131.122 30.0728C131.391 29.4735 131.709 28.8975 132.075 28.3509C132.199 28.1627 132.304 28.0215 132.38 27.9275L132.447 27.7393Z" fill="#F1CB6A"/>
<path d="M130.293 19.9575C130.293 19.9575 130.397 20.5315 130.502 21.3972C130.55 21.83 130.588 22.3381 130.626 22.865C130.665 23.392 130.626 23.9848 130.626 24.5494C130.613 25.5881 130.456 26.6202 130.159 27.6169C130.062 27.9555 129.904 28.2743 129.692 28.5578C129.623 28.6597 129.529 28.7431 129.419 28.8005C129.31 28.858 129.188 28.8878 129.063 28.8872C129.063 28.1721 128.997 27.504 128.997 26.8735C128.997 26.2431 128.996 25.6597 129.063 25.1234C129.13 24.587 129.158 24.0789 129.235 23.6084C129.311 23.1379 129.377 22.7239 129.473 22.3381C129.614 21.7393 129.789 21.1488 129.997 20.5691C130.083 20.3592 130.181 20.1549 130.293 19.9575Z" fill="#F1CB6A"/>
<path d="M126.689 12.9851L126.823 13.3239C126.944 13.6319 127.049 13.946 127.138 14.2648C127.262 14.6412 127.404 15.074 127.528 15.5539C127.652 16.0338 127.757 16.5419 127.852 17.0594C127.948 17.577 128.005 18.0945 128.043 18.5838C128.081 19.0315 128.081 19.4816 128.043 19.9293C127.977 20.7292 127.728 21.2843 127.309 21.369C126.711 19.426 126.412 17.4056 126.423 15.3751C126.434 14.7953 126.485 14.2169 126.575 13.6438C126.601 13.4223 126.639 13.2024 126.689 12.9851Z" fill="#F1CB6A"/>
<path d="M121.837 7.16064L122.018 7.42413C122.133 7.60292 122.286 7.85693 122.466 8.1675C122.902 8.91343 123.287 9.68666 123.62 10.4822C123.782 10.9244 123.944 11.3761 124.068 11.7995C124.184 12.1965 124.263 12.6027 124.306 13.0134C124.402 13.7379 124.306 14.293 123.935 14.4812C123.021 12.8784 122.378 11.1402 122.028 9.33427C121.931 8.81255 121.876 8.28388 121.866 7.75343C121.844 7.55663 121.835 7.35867 121.837 7.16064Z" fill="#F1CB6A"/>
<path d="M115.994 2.75684C115.994 2.75684 116.289 3.04854 116.718 3.50019C116.937 3.72602 117.176 3.9989 117.424 4.30941C117.671 4.61992 117.929 4.93985 118.167 5.25036C118.405 5.56087 118.625 5.96548 118.806 6.30422C118.988 6.62791 119.138 6.96827 119.254 7.32048C119.464 7.95088 119.492 8.45898 119.206 8.72246C118.081 7.55312 117.18 6.19175 116.546 4.70461C116.266 4.08556 116.08 3.42931 115.994 2.75684Z" fill="#F1CB6A"/>
<path d="M109.493 0C109.493 0 109.807 0.178781 110.274 0.470476C110.831 0.848224 111.362 1.25991 111.866 1.70312C112.133 1.95718 112.4 2.22065 112.629 2.47471C112.848 2.71582 113.043 2.97738 113.21 3.25569C113.515 3.76381 113.639 4.19665 113.439 4.49775C113.07 4.27718 112.716 4.03196 112.381 3.76381C112.075 3.53217 111.785 3.28069 111.513 3.01104C111.256 2.74758 111.027 2.50293 110.827 2.26769C110.629 2.03697 110.444 1.79506 110.274 1.54316C110.045 1.19194 109.845 0.823878 109.674 0.442247C109.601 0.299874 109.541 0.15198 109.493 0Z" fill="#F1CB6A"/>
<path d="M109.321 57.2476L109.006 57.511C108.806 57.671 108.52 57.8968 108.177 58.1885L106.957 59.1294C106.461 59.4494 105.984 59.8352 105.508 60.221C105.031 60.6068 104.468 60.9361 103.973 61.3123C103.487 61.6439 103.022 62.0054 102.581 62.3943C101.695 63.044 101.17 63.7963 101.304 64.559C102.907 64.4424 104.449 63.8989 105.765 62.9873C106.051 62.79 106.308 62.5922 106.556 62.3852C106.804 62.1782 107.014 61.9431 107.214 61.7263C107.577 61.3178 107.897 60.8732 108.167 60.3998C108.409 60.0084 108.613 59.5958 108.777 59.1671C108.905 58.8442 109.013 58.5143 109.101 58.1791C109.197 57.8741 109.27 57.5628 109.321 57.2476Z" fill="#F1CB6A"/>
<path d="M113.887 54.7822L112.991 55.9396C112.714 56.269 112.4 56.7018 112.038 57.1158L111.475 57.7933C111.284 58.0097 111.084 58.2355 110.884 58.4802C110.684 58.7248 110.474 58.9507 110.274 59.1765C110.074 59.4023 109.864 59.6564 109.674 59.8916C109.291 60.3218 108.934 60.7743 108.606 61.2464C108.313 61.6298 108.082 62.0548 107.92 62.5073C107.781 62.8621 107.781 63.2541 107.92 63.6082C109.388 63.0605 110.697 62.1654 111.733 61.0019C112.148 60.5265 112.513 60.0093 112.819 59.4588C112.962 59.1953 113.086 58.9507 113.201 58.706C113.308 58.4704 113.4 58.2284 113.477 57.9814C113.735 57.2375 113.886 56.4615 113.925 55.6761C113.941 55.3776 113.928 55.0784 113.887 54.7822Z" fill="#F1CB6A"/>
<path d="M117.9 51.1501C117.9 51.1501 117.834 51.2725 117.729 51.4983C117.624 51.7241 117.472 52.0628 117.281 52.4392C117.09 52.8156 116.861 53.2861 116.604 53.7754C116.347 54.2647 116.07 54.7916 115.784 55.3373C115.65 55.6196 115.498 55.8737 115.355 56.1466C115.212 56.4195 115.079 56.6829 114.945 56.9558C114.676 57.4538 114.434 57.9658 114.221 58.4895C114.033 58.916 113.905 59.3654 113.84 59.8257C113.788 60.1892 113.876 60.5584 114.087 60.8608C115.329 59.9627 116.351 58.8021 117.08 57.4639C117.629 56.4578 117.984 55.3605 118.129 54.2271C118.177 53.8022 118.199 53.3749 118.196 52.9473C118.185 52.6324 118.157 52.3182 118.11 52.0064C118.064 51.7159 117.994 51.4295 117.9 51.1501Z" fill="#F1CB6A"/>
<path d="M121.151 46.53C121.151 46.53 121.151 46.6712 121.065 46.9064C120.979 47.1416 120.922 47.4804 120.817 47.8474C120.817 48.0544 120.722 48.2802 120.655 48.5155C120.588 48.7507 120.522 48.9953 120.455 49.2588C120.322 49.7857 120.14 50.3315 119.997 50.9055C119.854 51.4795 119.664 52.0534 119.521 52.618C119.378 53.1825 119.254 53.7283 119.158 54.2176C118.987 55.1586 119.006 56.0431 119.473 56.4382C120.43 55.2935 121.14 53.9679 121.561 52.5427C121.723 51.9763 121.835 51.397 121.894 50.8114C121.927 50.3132 121.927 49.8135 121.894 49.3152C121.84 48.6063 121.693 47.9072 121.456 47.2358C121.37 46.9942 121.268 46.7585 121.151 46.53Z" fill="#F1CB6A"/>
<path d="M123.42 41.1665V41.2606C123.42 41.3265 123.42 41.4206 123.42 41.5335C123.42 41.6464 123.42 42.0981 123.372 42.4744C123.325 42.8508 123.315 43.3495 123.296 43.8765C123.277 44.4034 123.22 44.9398 123.191 45.5137C123.162 46.0877 123.115 46.6523 123.086 47.2074C123.057 47.7626 123.086 48.2896 123.086 48.7695C123.086 49.7104 123.305 50.4725 123.811 50.7172C124.737 48.9303 125.124 46.9186 124.926 44.921C124.867 44.4539 124.775 43.9916 124.65 43.5377C124.469 42.9046 124.207 42.2974 123.868 41.7311C123.774 41.5782 123.672 41.4306 123.562 41.2889C123.518 41.245 123.47 41.2041 123.42 41.1665Z" fill="#F1CB6A"/>
<path d="M124.574 35.2952C124.574 35.2952 124.649 35.7845 124.774 36.5466L124.974 37.8546C125.022 38.3345 125.117 38.8614 125.183 39.3883C125.303 40.4012 125.482 41.4065 125.718 42.3994C125.927 43.265 126.251 43.9049 126.766 43.999C126.852 43.6132 126.928 43.2368 126.985 42.8792C127.035 42.5298 127.067 42.1781 127.081 41.8254C127.114 41.1971 127.089 40.5671 127.004 39.9435C126.876 38.9874 126.578 38.0608 126.127 37.2053C125.968 36.9011 125.786 36.6087 125.584 36.3302C125.425 36.1221 125.253 35.9241 125.069 35.7374C124.92 35.5736 124.754 35.4254 124.574 35.2952Z" fill="#F1CB6A"/>
<path d="M124.574 29.1694C124.574 29.1694 124.621 29.2729 124.688 29.4705L124.983 30.2703C125.117 30.6091 125.25 30.9949 125.403 31.4277C125.489 31.6442 125.565 31.8606 125.651 32.0864C125.737 32.3122 125.813 32.5474 125.889 32.7827C126.061 33.2343 126.242 33.7236 126.413 34.1753C126.585 34.627 126.785 35.0504 126.966 35.4079C127.328 36.1419 127.757 36.6406 128.243 36.5935C128.253 35.904 128.204 35.2148 128.101 34.5329C128.043 34.2223 127.977 33.9212 127.91 33.5919C127.841 33.3243 127.758 33.0605 127.662 32.8015C127.367 31.9664 126.924 31.1892 126.356 30.5056C125.995 30.0855 125.578 29.7152 125.117 29.4046C124.99 29.321 124.856 29.2485 124.716 29.1882L124.574 29.1694Z" fill="#F1CB6A"/>
<path d="M123.276 23.251C123.276 23.251 123.496 23.6086 123.868 24.1919C124.03 24.4742 124.24 24.7941 124.459 25.1329C124.678 25.4716 124.916 25.8669 125.164 26.2527C125.609 26.9871 126.1 27.6941 126.632 28.3698C126.836 28.6213 127.081 28.8375 127.357 29.0096C127.451 29.0798 127.56 29.126 127.677 29.1441C127.793 29.1621 127.912 29.1515 128.024 29.1131C127.897 28.4922 127.722 27.8819 127.499 27.2877C127.301 26.797 127.058 26.3247 126.775 25.8763C126.536 25.508 126.268 25.1588 125.974 24.8318C125.722 24.5717 125.447 24.3325 125.155 24.1167C124.749 23.8126 124.295 23.5773 123.811 23.4204C123.639 23.345 123.46 23.2882 123.276 23.251Z" fill="#F1CB6A"/>
<path d="M120.846 17.7181L123.134 19.9576C123.42 20.2493 123.715 20.5409 124.011 20.8044C124.306 21.0678 124.592 21.3125 124.869 21.5101C125.421 21.8865 125.908 22.0841 126.26 21.8206C126.033 21.291 125.755 20.7837 125.431 20.3057C125.143 19.9181 124.824 19.5531 124.478 19.2142C123.96 18.7035 123.345 18.3003 122.666 18.0286C122.243 17.8473 121.792 17.739 121.332 17.7087C121.17 17.6982 121.007 17.7013 120.846 17.7181Z" fill="#F1CB6A"/>
<path d="M117.367 12.9005L117.577 13.0228L118.12 13.3615C118.587 13.625 119.187 14.0202 119.836 14.3872C120.15 14.5754 120.475 14.7636 120.789 14.9235C121.079 15.082 121.378 15.2234 121.685 15.3469C121.931 15.4431 122.193 15.4972 122.457 15.5069C122.56 15.5097 122.662 15.49 122.756 15.4493C122.85 15.4086 122.933 15.348 123 15.2717C122.56 14.6059 121.984 14.0373 121.31 13.6018C120.636 13.1662 119.877 12.873 119.082 12.7405C118.666 12.6802 118.242 12.6802 117.824 12.7405C117.667 12.7819 117.515 12.8354 117.367 12.9005Z" fill="#F1CB6A"/>
<path d="M112.982 9.07064L113.745 9.30591L114.545 9.54112C114.831 9.63522 115.155 9.7105 115.498 9.814C115.841 9.9175 116.146 9.9928 116.452 10.0587C116.74 10.1277 117.033 10.178 117.328 10.2092C117.872 10.2563 118.282 10.2092 118.482 9.814C117.949 9.33644 117.322 8.97422 116.638 8.75061C115.956 8.52694 115.233 8.44689 114.516 8.51552C113.968 8.58007 113.443 8.77015 112.982 9.07064Z" fill="#F1CB6A"/>
<path d="M107.91 6.4548C107.91 6.4548 108.205 6.4548 108.644 6.4548C108.854 6.4548 109.111 6.4548 109.388 6.4548C109.664 6.4548 109.969 6.4548 110.264 6.4548C110.56 6.4548 110.865 6.4548 111.161 6.4548C111.433 6.44723 111.704 6.4189 111.971 6.37011C112.457 6.27601 112.82 6.08785 112.924 5.73029C112.554 5.57392 112.172 5.44802 111.781 5.35391C111.445 5.28503 111.103 5.25034 110.761 5.2504C110.468 5.24601 110.177 5.27762 109.893 5.3445C109.65 5.39999 109.411 5.47231 109.178 5.56092C108.831 5.69717 108.51 5.88782 108.225 6.12549C108.112 6.22796 108.007 6.33799 107.91 6.4548Z" fill="#F1CB6A"/>
<path d="M101.285 2.09825L102.353 1.96652C102.735 1.91645 103.12 1.88818 103.506 1.88184H104.173L104.888 1.92888L105.622 1.99475L106.366 2.12648C106.847 2.20747 107.32 2.33349 107.777 2.50287C108.2 2.63913 108.606 2.82221 108.988 3.04861C109.153 3.14537 109.312 3.25222 109.464 3.36854C109.596 3.47568 109.718 3.59544 109.826 3.7261C109.474 3.76388 109.12 3.76388 108.768 3.7261C108.368 3.67905 107.949 3.59437 107.5 3.50968C107.268 3.46979 107.04 3.41637 106.814 3.34972L106.118 3.19917L105.412 3.02038L104.717 2.82279L104.049 2.65341L103.411 2.55932C103.001 2.46523 102.638 2.37113 102.314 2.31467C101.695 2.19235 101.285 2.09825 101.285 2.09825Z" fill="#F1CB6A"/>
</g>
</g>
<defs>
<clipPath id="clip0_166_1261">
<rect width="133" height="69" fill="white"/>
</clipPath>
</defs>
</svg>
